<svg xmlns="http://www.w3.org/2000/svg" viewBox="0 0 64 64" width="64" height="64">
  <circle cx="32" cy="32" r="30" fill="#166534" stroke="#4ade80" stroke-width="2"/>
  <circle cx="32" cy="30" r="26" fill="url(#gg)" opacity="0.8"/>
  <defs>
    <radialGradient id="gg" cx="35%" cy="30%" r="65%">
      <stop offset="0%" stop-color="#4ade80" stop-opacity="0.4"/>
      <stop offset="100%" stop-color="#14532d" stop-opacity="1"/>
    </radialGradient>
  </defs>
  <!-- pointy ears -->
  <polygon points="14,20 8,8 22,16" fill="#166534" stroke="#4ade80" stroke-width="1"/>
  <polygon points="50,20 56,8 42,16" fill="#166534" stroke="#4ade80" stroke-width="1"/>
  <!-- eyes -->
  <ellipse cx="24" cy="28" rx="4" ry="5" fill="#fef08a"/>
  <ellipse cx="40" cy="28" rx="4" ry="5" fill="#fef08a"/>
  <circle cx="25" cy="29" r="2.5" fill="#1a1a1a"/>
  <circle cx="41" cy="29" r="2.5" fill="#1a1a1a"/>
  <circle cx="26" cy="28" r="1" fill="white"/>
  <circle cx="42" cy="28" r="1" fill="white"/>
  <!-- nose -->
  <ellipse cx="32" cy="36" rx="3" ry="2" fill="#0f4a26"/>
  <!-- mouth / tusks -->
  <path d="M26 40 Q32 45 38 40" stroke="#86efac" stroke-width="1.5" fill="none"/>
  <line x1="28" y1="40" x2="27" y2="45" stroke="#fef9c3" stroke-width="2"/>
  <line x1="36" y1="40" x2="37" y2="45" stroke="#fef9c3" stroke-width="2"/>
</svg>
